<svg xmlns="http://www.w3.org/2000/svg" width="540" height="294" preserveAspectRatio="xMidYMid meet" shape-rendering="geometricPrecision" version="1.0" viewBox="0 0 540 294"><defs><style type="text/css">@font-face{font-family:sans-serif}</style><filter id="shadowBlur" width="200%" height="200%" x="0" y="0"><feOffset dx="3" dy="3" in="SourceGraphic" result="offOut"/><feGaussianBlur in="offOut" stdDeviation="3"/></filter></defs><g stroke-linecap="square" stroke-linejoin="round" stroke-width="1"><rect style="fill:#fff" width="540" height="294" x="0" y="0"/><path fill="#969696" stroke="#969696" d="M355.0 154.0 Q355.0 147.0 360.0 147.0 L510.0 147.0 Q515.0 147.0 515.0 154.0 L515.0 210.0 L515.0 210.0 Q515.0 217.0 510.0 217.0 L360.0 217.0 L360.0 217.0 Q355.0 217.0 355.0 210.0 L355.0 154.0 z" filter="url(#shadowBlur)"/><path fill="#969696" stroke="#969696" d="M35.0 147.0 L125.0 147.0 L125.0 217.0 Q95.0 209.0 80.0 217.0 Q65.0 225.0 35.0 217.0 z" filter="url(#shadowBlur)"/><path fill="#969696" stroke="#969696" d="M215.0 49.0 L355.0 49.0 L355.0 91.0 L215.0 91.0 z" filter="url(#shadowBlur)"/><path fill="#969696" stroke="#969696" d="M165.0 177.0 L305.0 177.0 L305.0 217.0 L165.0 217.0 z" filter="url(#shadowBlur)"/><path fill="#969696" stroke="#969696" d="M165.0 147.0 L305.0 147.0 L305.0 173.0 L165.0 173.0 z" filter="url(#shadowBlur)"/><path fill="none" stroke="#000" stroke-dasharray="5 5" stroke-linecap="butt" stroke-linejoin="round" stroke-miterlimit="0" stroke-width="1" d="M75.0 217.0 L75.0 259.0 L435.0 259.0 L435.0 231.0"/><path fill="#fff" stroke="#000" stroke-linecap="round" stroke-linejoin="round" stroke-width="1" d="M355.0 154.0 Q355.0 147.0 360.0 147.0 L510.0 147.0 Q515.0 147.0 515.0 154.0 L515.0 210.0 L515.0 210.0 Q515.0 217.0 510.0 217.0 L360.0 217.0 L360.0 217.0 Q355.0 217.0 355.0 210.0 L355.0 154.0 z"/><path fill="#fff" stroke="#000" stroke-linecap="round" stroke-linejoin="round" stroke-width="1" d="M35.0 147.0 L125.0 147.0 L125.0 217.0 Q95.0 209.0 80.0 217.0 Q65.0 225.0 35.0 217.0 z"/><path fill="#fff" stroke="#000" stroke-linecap="round" stroke-linejoin="round" stroke-width="1" d="M215.0 49.0 L355.0 49.0 L355.0 91.0 L215.0 91.0 z"/><path fill="#fff" stroke="#000" stroke-linecap="round" stroke-linejoin="round" stroke-width="1" d="M165.0 177.0 L305.0 177.0 L305.0 217.0 L165.0 217.0 z"/><path fill="#fff" stroke="#000" stroke-linecap="round" stroke-linejoin="round" stroke-width="1" d="M165.0 147.0 L305.0 147.0 L305.0 173.0 L165.0 173.0 z"/><path fill="none" stroke="#000" stroke-linecap="round" stroke-linejoin="round" stroke-width="1" d="M365.0 63.0 L435.0 63.0 L435.0 133.0"/><path fill="#000" stroke="none" stroke-linecap="round" stroke-linejoin="round" stroke-width="1" d="M255.0 98.0 L250.0 112.0 L260.0 112.0 z"/><path fill="#000" stroke="none" stroke-linecap="round" stroke-linejoin="round" stroke-width="1" d="M430.0 126.0 L435.0 140.0 L440.0 126.0 z"/><path fill="#000" stroke="none" stroke-linecap="round" stroke-linejoin="round" stroke-width="1" d="M330.0 154.0 L340.0 161.0 L330.0 168.0 z"/><path fill="#000" stroke="none" stroke-linecap="round" stroke-linejoin="round" stroke-width="1" d="M435.0 224.0 L430.0 238.0 L440.0 238.0 z"/><path fill="none" stroke="#000" stroke-linecap="round" stroke-linejoin="round" stroke-width="1" d="M255.0 105.0 L255.0 147.0"/><path fill="none" stroke="#000" stroke-linecap="round" stroke-linejoin="round" stroke-width="1" d="M145.0 161.0 L165.0 161.0"/><path fill="none" stroke="#000" stroke-linecap="round" stroke-linejoin="round" stroke-width="1" d="M305.0 161.0 L335.0 161.0"/><text x="242" y="68" fill="#000" stroke="none" font-family="sans-serif" font-size="15"><![CDATA[Asciidoctor]]></text><text x="253" y="82" fill="#000" stroke="none" font-family="sans-serif" font-size="15"><![CDATA[diagram]]></text><text x="456" y="96" fill="#000" stroke="none" font-family="sans-serif" font-size="15"><![CDATA[SVG out]]></text><text x="281" y="124" fill="#000" stroke="none" font-family="sans-serif" font-size="15"><![CDATA[ditaa in]]></text><text x="192" y="166" fill="#000" stroke="none" font-family="sans-serif" font-size="15"><![CDATA[Asciidoctor]]></text><text x="64" y="180" fill="#000" stroke="none" font-family="sans-serif" font-size="15"><![CDATA[Text]]></text><text x="42" y="194" fill="#000" stroke="none" font-family="sans-serif" font-size="15"><![CDATA[Document]]></text><text x="401" y="180" fill="#000" stroke="none" font-family="sans-serif" font-size="15"><![CDATA[Beautiful]]></text><text x="403" y="194" fill="#000" stroke="none" font-family="sans-serif" font-size="15"><![CDATA[Output]]></text><text x="207" y="194" fill="#000" stroke="none" font-family="sans-serif" font-size="15"><![CDATA[!magic!]]></text><text x="193" y="250" fill="#000" stroke="none" font-family="sans-serif" font-size="15"><![CDATA[Lots of work]]></text></g></svg>